<svg xmlns="http://www.w3.org/2000/svg" version="1.1" xmlns:xlink="http://www.w3.org/1999/xlink" xmlns:svgjs="http://svgjs.com/svgjs" width="128px" height="128px"><svg xmlns="http://www.w3.org/2000/svg" viewBox="0 0 64 64" width="128px" height="128px" baseProfile="basic"><path fill="#b6b6ef" d="M41.003,4.431c-0.199,0.169-0.411,0.332-0.649,0.482c-0.012,0.008-0.028,0.019-0.041,0.027 c-0.186,0.383-0.433,0.826-0.527,0.987c-0.556,0.954-1.321,1.699-2.187,2.359c-1.742,1.329-3.8,2.051-5.974,2.262 c-2.243,0.218-4.597-0.347-6.236-1.979c-0.917-0.913-1.138-2.052-1.726-3.118c0.05,0.114-0.002,0.093-0.479-0.578 c-0.09-0.127-0.167-0.272-0.236-0.426C11.364,8.25,3,19.142,3,32c0,16.02,12.98,29,29,29c2.96,0,5.81-0.44,8.5-1.26 c8.25-2.53,14.93-8.63,18.24-16.5C60.2,39.78,61,35.99,61,32C61,19.124,52.612,8.219,41.003,4.431z"></path><path fill="#f9eede" d="M24,59c-0.83-0.296-1.749-3.997-0.999-5.756c-1.446-1.468-1.389-3.292-0.837-4.632 c-1.128-0.811-1.529-1.734-1.656-2.423c-0.145-0.78-0.003-1.585,0.399-2.343c-0.769-0.523-1.265-1.186-1.481-1.977 c-0.264-0.962-0.037-1.871,0.24-2.52c-0.772-0.608-1.102-1.32-1.238-1.871c-0.201-0.807-0.095-1.698,0.289-2.554 c-2.308-1.38-2.605-3.638-2.346-5.149c-0.822-0.708-1.364-1.623-1.582-2.682c-0.296-1.433,0.047-2.824,0.546-3.823 c-0.891-1.532-1.162-2.984-0.807-4.323c0.352-1.322,1.23-2.198,1.958-2.722c-0.428-1.194-0.429-2.323,0.001-3.364 c0.519-1.26,1.571-2.094,2.423-2.591c-1.555-1.966-4.307-5.923-3.466-8.385c0.232-0.684,0.831-1.562,2.359-1.867 c0.077-0.016,0.155-0.023,0.233-0.019c2.68,0.099,4.104,2.481,4.786,4.198c0.421-0.326,0.938-0.625,1.539-0.789 c1.058-0.289,2.188,0.037,2.967,0.372C27.964,2.902,29.135,2,31,2c1.606,0,2.698,0.942,3.309,1.683C34.979,3.36,35.961,3,37,3 c0.847,0,1.531,0.261,2.07,0.639C39.651,1.802,40.844,0,43,0c1.115,0,1.984,0.715,2.384,1.961 c0.717,2.239-0.087,5.945-2.12,8.271c0.648,0.42,1.353,1.062,1.775,2.008c0.563,1.263,0.499,2.731-0.191,4.377 c0.781,0.812,1.282,1.909,1.379,3.069c0.091,1.104-0.182,2.175-0.778,3.104c0.763,0.688,1.3,1.637,1.499,2.691 c0.236,1.245-0.007,2.507-0.687,3.649c2.045,1.24,2.265,2.959,1.914,4.442c0.686,0.561,1.118,1.331,1.243,2.233 c0.129,0.938-0.092,1.914-0.591,2.736c0.515,0.508,0.905,1.188,1.079,1.927c0.223,0.94,0.088,1.909-0.378,2.816 c0.94,0.524,1.652,1.318,1.966,2.236c0.287,0.843,0.227,1.745-0.163,2.623c0.701,0.39,1.543,1.055,2.095,2.155 c0.248,0.494,0.048,1.095-0.445,1.342C52.489,51.893,38,64,24,59z"></path><path fill="#8d6c9f" d="M50,48.5c0,0,4.5-3.75,5.75-10.625c-1.5,1.25-4,2.125-2.875-0.375c2.25-3,5.375-8.25,4.75-12.375 C56,28,55.43,29.06,52.875,31.25C52,32,52,31,52,31s2-3.375,1-6c-1,3.625-2.5,4.5-5.75,5.75s0.25-1.625,0.25-1.625 s4.75-3.875,4.625-11.5C51,21,48,25,45,25c0,0,0.969,6.938,2,9C49,38,50,48.5,50,48.5"></path><path fill="#8d6c9f" d="M7.875,32.125C7.875,32.125,12,31,14,26.5c0,3-2,5.625-2,5.625s-0.25,2.125,2.375,0.5 s3.25-3.125,3.25-3.125s-0.125,1,0.125,3.25c-1.5,2.5-3.625,5-3.625,5S12.75,39,13.375,40.5S17,41,18,39c0.5,1.875-2,5,0,6 c0.856,0.428,2-1,3-2.375C22,46,23,50,23,50l1.125,5.125c0,0-8.625-3.125-12.375-9.625S7.875,32.125,7.875,32.125z"></path><path fill="#8d6c9f" d="M23.8,59.625c-0.387,0-0.756-0.227-0.919-0.604c-0.706-1.643-0.63-4.018,0.12-5.776 c-1.446-1.468-1.389-3.292-0.837-4.632c-1.128-0.811-1.529-1.734-1.656-2.423c-0.145-0.78-0.003-1.585,0.399-2.343 c-0.769-0.523-1.265-1.186-1.481-1.977c-0.264-0.962-0.037-1.871,0.24-2.52c-0.772-0.608-1.102-1.32-1.238-1.871 c-0.201-0.807-0.095-1.698,0.289-2.554c-2.308-1.38-2.605-3.638-2.346-5.149c-0.822-0.708-1.364-1.623-1.582-2.682 c-0.296-1.433,0.047-2.824,0.546-3.823c-0.891-1.532-1.162-2.984-0.807-4.323c0.352-1.322,1.23-2.198,1.958-2.722 c-0.428-1.194-0.429-2.323,0.001-3.364c0.519-1.26,1.571-2.094,2.423-2.591c-1.555-1.966-4.307-5.923-3.466-8.385 c0.232-0.684,0.831-1.562,2.359-1.867c0.077-0.016,0.155-0.023,0.233-0.019c2.68,0.099,4.104,2.481,4.786,4.198 c0.421-0.326,0.938-0.625,1.539-0.789c1.058-0.289,2.188,0.037,2.967,0.372C27.964,2.902,29.135,2,31,2 c1.606,0,2.698,0.942,3.309,1.683C34.979,3.36,35.961,3,37,3c0.847,0,1.531,0.261,2.07,0.639C39.651,1.802,40.844,0,43,0 c1.115,0,1.984,0.715,2.384,1.961c0.717,2.239-0.087,5.945-2.12,8.271c0.648,0.42,1.353,1.062,1.775,2.008 c0.563,1.263,0.499,2.731-0.191,4.377c0.781,0.812,1.282,1.909,1.379,3.069c0.091,1.104-0.182,2.175-0.778,3.104 c0.763,0.688,1.3,1.637,1.499,2.691c0.236,1.245-0.007,2.507-0.687,3.649c2.045,1.24,2.265,2.959,1.914,4.442 c0.686,0.561,1.118,1.331,1.243,2.233c0.129,0.938-0.092,1.914-0.591,2.736c0.515,0.508,0.905,1.188,1.079,1.927 c0.223,0.94,0.088,1.909-0.378,2.816c0.94,0.524,1.652,1.318,1.966,2.236c0.287,0.843,0.227,1.745-0.163,2.623 c0.701,0.39,1.543,1.055,2.095,2.155c0.248,0.494,0.048,1.095-0.445,1.342c-0.491,0.249-1.095,0.048-1.342-0.445 c-0.637-1.27-1.928-1.585-1.982-1.598c-0.333-0.078-0.607-0.321-0.721-0.645s-0.058-0.683,0.154-0.951 c0.527-0.667,0.699-1.284,0.511-1.835c-0.221-0.646-0.961-1.229-1.843-1.45c-0.34-0.084-0.61-0.341-0.713-0.675 c-0.104-0.334-0.024-0.698,0.208-0.959c0.629-0.708,0.873-1.453,0.707-2.156c-0.148-0.63-0.594-1.106-0.956-1.251 c-0.32-0.128-0.552-0.412-0.613-0.751c-0.061-0.339,0.057-0.686,0.312-0.918c0.532-0.483,0.827-1.259,0.734-1.93 c-0.073-0.53-0.37-0.929-0.884-1.186c-0.458-0.229-0.669-0.767-0.489-1.246c0.526-1.402,0.419-2.379-1.685-3.22 c-0.304-0.122-0.528-0.384-0.603-0.702s0.012-0.652,0.23-0.896c0.82-0.911,1.167-1.969,0.976-2.977 c-0.163-0.861-0.697-1.594-1.43-1.96c-0.287-0.144-0.488-0.417-0.54-0.734s0.053-0.64,0.28-0.867 c0.872-0.872,0.992-1.809,0.94-2.441c-0.072-0.874-0.518-1.683-1.189-2.163c-0.403-0.288-0.535-0.828-0.309-1.27 c0.698-1.363,0.86-2.49,0.482-3.351c-0.521-1.188-1.964-1.599-1.978-1.603c-0.372-0.103-0.654-0.411-0.722-0.791 c-0.067-0.379,0.087-0.765,0.4-0.988c2.247-1.605,3.103-5.423,2.56-7.115C43.296,2,43.073,2,43,2 c-1.983,0-2.375,4.034-2.378,4.075c-0.036,0.479-0.406,0.863-0.884,0.918c-0.468,0.06-0.925-0.236-1.067-0.695 C38.629,6.173,38.203,5,37,5c-1.182,0-2.428,0.82-2.44,0.828c-0.239,0.162-0.535,0.211-0.813,0.14 c-0.278-0.073-0.512-0.263-0.641-0.521C33.101,5.438,32.342,4,31,4c-1.863,0-2.285,1.389-2.289,1.402 c-0.088,0.304-0.313,0.548-0.609,0.659c-0.297,0.109-0.626,0.076-0.893-0.096c-0.357-0.227-1.553-0.834-2.321-0.626 c-0.808,0.22-1.48,1.032-1.672,1.326c-0.221,0.342-0.627,0.516-1.026,0.438c-0.398-0.076-0.714-0.384-0.795-0.781 c-0.008-0.042-0.863-4.102-3.315-4.316c-0.614,0.15-0.706,0.42-0.742,0.525c-0.49,1.437,2.048,5.286,3.918,7.437 c0.22,0.253,0.299,0.6,0.209,0.924c-0.09,0.323-0.336,0.58-0.654,0.684c-0.017,0.005-1.902,0.647-2.477,2.056 c-0.297,0.729-0.196,1.558,0.307,2.536c0.122,0.237,0.144,0.514,0.061,0.768s-0.264,0.465-0.503,0.584 c-0.423,0.211-1.438,0.824-1.735,1.941c-0.243,0.915,0.05,2.003,0.87,3.234c0.224,0.336,0.224,0.773,0,1.109 c-0.448,0.673-0.803,1.826-0.585,2.887c0.158,0.768,0.595,1.389,1.298,1.845c0.385,0.251,0.55,0.73,0.4,1.165 c-0.148,0.45-0.757,2.783,2.041,3.866c0.292,0.113,0.514,0.356,0.6,0.657c0.087,0.301,0.027,0.625-0.161,0.875 c-0.483,0.646-0.691,1.354-0.557,1.897c0.112,0.451,0.469,0.82,1.058,1.098c0.272,0.129,0.472,0.372,0.545,0.664 c0.072,0.292,0.01,0.601-0.171,0.841c-0.185,0.254-0.634,1.073-0.443,1.749c0.137,0.486,0.607,0.899,1.401,1.228 c0.301,0.125,0.522,0.389,0.594,0.707c0.07,0.319-0.019,0.652-0.239,0.893c-0.506,0.552-0.732,1.138-0.638,1.65 c0.134,0.723,0.874,1.23,1.473,1.529c0.263,0.132,0.455,0.372,0.524,0.657c0.069,0.286,0.01,0.588-0.163,0.825 c-0.228,0.323-1.293,2.028,0.529,3.354c0.425,0.309,0.538,0.894,0.26,1.339c-0.757,1.212-0.935,3.408-0.379,4.699 c0.218,0.508-0.017,1.096-0.523,1.314C24.066,59.599,23.932,59.625,23.8,59.625z"></path><path fill="#8d6c9f" d="M8,29c0,0,0-3,1.125-4.375C11.875,21.375,13,19.5,13,18.25C13,23.75,8,29,8,29z"></path><path fill="#edc691" d="M39.9,36.12c0,1.35-0.38,2.58-1.03,3.3c-0.19,0.21-0.47,0.33-0.74,0.33 c-0.13,0-0.26-0.02-0.38-0.07l-2.9-1.18C34.67,38.79,34.37,39,34,39h-3c-0.38,0-0.71-0.22-0.87-0.54l-2.84,1.21 c-0.12,0.05-0.26,0.08-0.39,0.08c-0.24,0-0.47-0.08-0.66-0.25C25.46,38.82,25,37.51,25,36c0-1.35,0.38-2.58,1.03-3.29 c0.28-0.31,0.72-0.42,1.1-0.27l2.97,1.14C30.26,33.24,30.6,33,31,33h3c0.33,0,0.61,0.17,0.79,0.42l2.88-0.99 c0.34-0.12,0.72-0.05,0.99,0.19C39.44,33.3,39.9,34.61,39.9,36.12z"></path><path fill="#8d6c9f" d="M26.24,17.701c0.655,0.493,1.494,0.629,2.496,0.409c0.746,0.609,1.529,0.918,2.334,0.918 c0.019,0,0.036,0,0.055-0.001c0.867-0.015,1.705-0.389,2.495-1.111c0.884,0.025,1.772-0.243,2.418-0.79 C36.658,16.601,37,15.89,37,15.125c0-0.553-0.447-1-1-1s-1,0.447-1,1c0,0.215-0.139,0.377-0.254,0.475 c-0.315,0.269-0.813,0.375-1.332,0.289c-0.328-0.053-0.666,0.06-0.896,0.304c-0.51,0.547-0.99,0.828-1.429,0.836 c-0.442-0.035-0.888-0.241-1.383-0.735c-0.268-0.268-0.664-0.364-1.023-0.241c-0.574,0.189-1.024,0.213-1.236,0.055 c-0.257-0.19-0.328-0.718-0.323-0.945c0.021-0.549-0.406-1.012-0.956-1.035c-0.531-0.025-1.018,0.404-1.042,0.956 C25.118,15.258,25.084,16.829,26.24,17.701z"></path><ellipse cx="23.5" cy="19.5" fill="#8d6c9f" rx="2.5" ry="1.5"></ellipse><ellipse cx="38.5" cy="19.5" fill="#8d6c9f" rx="2.5" ry="1.5"></ellipse><path fill="#8d6c9f" d="M34.293,26.293c-0.933,0.934-1.811,0.575-2.293,0.236v-1.81l1.678-1.089 c0.53-0.654,0.065-1.63-0.777-1.63h-3.98c-0.825,0-1.295,0.943-0.799,1.602L30,24.88v1.652c-0.481,0.339-1.363,0.69-2.293-0.239 c-0.391-0.391-1.023-0.391-1.414,0s-0.391,1.023,0,1.414c0.856,0.856,1.778,1.177,2.638,1.177c0.778,0,1.495-0.272,2.075-0.637 c0.258,0.163,0.559,0.329,0.928,0.453c0.381,0.127,0.762,0.189,1.137,0.189c0.948,0,1.857-0.401,2.637-1.182 c0.391-0.391,0.391-1.023,0-1.414S34.684,25.902,34.293,26.293z"></path><g><path fill="#8d6c9f" d="M44.282,5.735c-0.125,0.667-0.369,1.306-0.732,1.87C52.681,11.933,59,21.223,59,32 c0,14.912-12.088,27-27,27S5,46.912,5,32c0-10.367,5.847-19.36,14.419-23.883c-0.635-0.357-1.142-0.852-1.522-1.431 C9.018,11.642,3,21.109,3,32c0,16.016,12.984,29,29,29s29-12.984,29-29C61,20.376,54.157,10.359,44.282,5.735z"></path></g><g><path fill="#8d6c9f" d="M34.924,52.28c-0.502,0.053-0.865,0.502-0.813,1.003l0.191,1.816 c0.053,0.501,0.501,0.865,1.003,0.813c0.502-0.053,0.865-0.502,0.813-1.003l-0.191-1.816 C35.875,52.592,35.426,52.228,34.924,52.28z M40.392,51.777c-0.181-0.471-0.709-0.708-1.18-0.525 c-0.47,0.181-0.706,0.709-0.525,1.18l0.655,1.705c0.151,0.395,0.546,0.624,0.947,0.582c0.078-0.008,0.156-0.026,0.233-0.057 c0.47-0.181,0.706-0.709,0.525-1.18L40.392,51.777z M44.363,49.35c-0.297-0.409-0.869-0.498-1.275-0.202 c-0.409,0.296-0.499,0.868-0.202,1.275l1.073,1.477c0.2,0.274,0.521,0.404,0.835,0.371c0.154-0.016,0.306-0.072,0.44-0.169 c0.409-0.296,0.499-0.868,0.202-1.275L44.363,49.35z M30.516,52.165c-0.498-0.08-0.966,0.26-1.045,0.759l-0.286,1.804 c-0.079,0.499,0.261,0.966,0.759,1.045c0.081,0.013,0.161,0.015,0.239,0.007c0.4-0.042,0.74-0.349,0.806-0.766l0.286-1.804 C31.354,52.712,31.014,52.243,30.516,52.165z"></path></g><g><path fill="#8d6c9f" d="M38.658,32.622c-0.27-0.237-0.646-0.311-0.983-0.192l-2.882,0.99C34.611,33.172,34.332,33,34,33h-3 c-0.402,0-0.743,0.24-0.902,0.582l-2.966-1.14c-0.385-0.15-0.825-0.044-1.102,0.265C25.385,33.422,25,34.653,25,36 c0,1.515,0.465,2.824,1.243,3.503c0.186,0.162,0.42,0.247,0.657,0.247c0.133,0,0.267-0.026,0.393-0.08l2.833-1.209 C30.294,38.777,30.616,39,31,39h3c0.367,0,0.674-0.207,0.848-0.502l2.903,1.179c0.122,0.049,0.249,0.073,0.376,0.073 c0.277,0,0.55-0.116,0.743-0.331c0.646-0.716,1.03-1.947,1.03-3.294C39.9,34.612,39.437,33.303,38.658,32.622z M27.26,37.509 C27.118,37.159,27,36.647,27,36c0-0.551,0.09-1.027,0.214-1.384L30,35.687v0.652L27.26,37.509z M33,37h-1v-0.002 c0-0.001,0-0.003,0-0.004V35h1V37z M37.691,37.494L35,36.401v-0.938l2.618-0.9c0.151,0.351,0.282,0.882,0.282,1.562 C37.9,36.668,37.813,37.139,37.691,37.494z"></path></g></svg><style>@media (prefers-color-scheme: light) { :root { filter: contrast(1) brightness(1); } }
</style></svg>